<svg width="16" height="16" viewBox="0 0 16 16" fill="none" xmlns="http://www.w3.org/2000/svg">
<path d="M7.94 13.5C7.02141 12.9761 6.26543 12.2085 5.75546 11.2821C5.24548 10.3557 5.00135 9.30639 5.05 8.25C5.00135 7.19361 5.24548 6.14432 5.75546 5.2179C6.26543 4.29148 7.02141 3.52395 7.94 3V1C5.12 1.67 3 4.66 3 8.25C3 11.84 5.12 14.83 7.94 15.52V13.5Z" fill="#0059FE"/>
<path d="M12.45 12.7699C13.0575 12.7699 13.55 12.2775 13.55 11.6699C13.55 11.0624 13.0575 10.5699 12.45 10.5699C11.8425 10.5699 11.35 11.0624 11.35 11.6699C11.35 12.2775 11.8425 12.7699 12.45 12.7699Z" fill="#0059FE"/>
<path d="M12.45 5.91997C13.0575 5.91997 13.55 5.42748 13.55 4.81997C13.55 4.21246 13.0575 3.71997 12.45 3.71997C11.8425 3.71997 11.35 4.21246 11.35 4.81997C11.35 5.42748 11.8425 5.91997 12.45 5.91997Z" fill="#0059FE"/>
</svg>
